<svg width="15" height="23" viewBox="0 0 15 23" fill="none" xmlns="http://www.w3.org/2000/svg">
<path fill-rule="evenodd" clip-rule="evenodd" d="M2.80742 16.8498V21.5H6.2351V16.8506C5.76281 17.2702 5.15301 17.5019 4.52126 17.5019C3.88951 17.5019 3.27971 17.2694 2.80742 16.8498ZM4.52749 15.618C4.44051 15.6186 4.35426 15.602 4.27367 15.5693C4.19308 15.5366 4.11974 15.4883 4.05783 15.4271C3.99593 15.366 3.94668 15.2933 3.91289 15.2132C3.87911 15.133 3.86146 15.047 3.86095 14.96C3.86146 14.873 3.87911 14.787 3.91289 14.7068C3.94668 14.6267 3.99593 14.554 4.05783 14.4928C4.11974 14.4317 4.19308 14.3834 4.27367 14.3507C4.35426 14.3179 4.44051 14.3014 4.52749 14.302C4.61441 14.3015 4.70057 14.3181 4.78107 14.3509C4.86157 14.3837 4.93482 14.432 4.99664 14.4931C5.05846 14.5542 5.10765 14.6269 5.14138 14.707C5.17511 14.7871 5.19274 14.8731 5.19325 14.96C5.19274 15.0469 5.17511 15.1329 5.14138 15.213C5.10765 15.2931 5.05846 15.3658 4.99664 15.4269C4.93482 15.488 4.86157 15.5363 4.78107 15.5691C4.70057 15.6019 4.61441 15.6185 4.52749 15.618ZM2.80664 6.79103V14.8954C2.80664 15.85 3.57596 16.624 4.5236 16.624C4.96315 16.6222 5.38536 16.4523 5.70361 16.1491C6.02187 15.8459 6.21203 15.4324 6.2351 14.9935C6.23744 14.9608 6.24055 14.9281 6.24055 14.8954V11.4716H10.218V8.82023H6.24055V7.12819H6.2351V6.79103C6.2351 5.73983 7.09864 4.88719 8.16307 4.88719H12.1927V1.5H8.16307C5.20493 1.50078 2.80742 3.87025 2.80742 6.7918" fill="#FFE30F"/>
<path d="M2.80664 6.79103V14.8954C2.80664 15.85 3.57596 16.624 4.5236 16.624C4.96315 16.6222 5.38536 16.4523 5.70361 16.1491C6.02187 15.8459 6.21203 15.4324 6.2351 14.9935C6.23744 14.9608 6.24055 14.9281 6.24055 14.8954V11.4716H10.218V8.82023H6.24055V7.12819H6.2351V6.79103C6.2351 5.73983 7.09864 4.88719 8.16307 4.88719H12.1927V1.5H8.16307C5.20493 1.50078 2.80742 3.87025 2.80742 6.7918M2.80742 16.8498V21.5H6.2351V16.8506C5.76281 17.2702 5.15301 17.5019 4.52126 17.5019C3.88951 17.5019 3.27971 17.2694 2.80742 16.8498ZM4.52749 15.618C4.44051 15.6186 4.35426 15.602 4.27367 15.5693C4.19308 15.5366 4.11974 15.4883 4.05783 15.4271C3.99593 15.366 3.94668 15.2933 3.91289 15.2132C3.87911 15.133 3.86146 15.047 3.86095 14.96C3.86146 14.873 3.87911 14.787 3.91289 14.7068C3.94668 14.6267 3.99593 14.554 4.05783 14.4928C4.11974 14.4317 4.19308 14.3834 4.27367 14.3507C4.35426 14.3179 4.44051 14.3014 4.52749 14.302C4.61441 14.3015 4.70057 14.3181 4.78107 14.3509C4.86157 14.3837 4.93482 14.432 4.99664 14.4931C5.05846 14.5542 5.10765 14.6269 5.14138 14.707C5.17511 14.7871 5.19274 14.8731 5.19325 14.96C5.19274 15.0469 5.17511 15.1329 5.14138 15.213C5.10765 15.2931 5.05846 15.3658 4.99664 15.4269C4.93482 15.488 4.86157 15.5363 4.78107 15.5691C4.70057 15.6019 4.61441 15.6185 4.52749 15.618Z" stroke="black" stroke-width="1.5"/>
</svg>
