<svg width="17" height="15" viewBox="0 0 17 15" fill="none" xmlns="http://www.w3.org/2000/svg">
<path d="M15.1667 2H1.83333C1.60322 2 1.39488 2.08795 1.24408 2.23013C1.09328 2.37232 1 2.56875 1 2.78571V12.2143C1 12.6482 1.3731 13 1.83333 13H15.1667C15.6269 13 16 12.6482 16 12.2143V2.78571C16 2.56875 15.9067 2.37232 15.7559 2.23013C15.6051 2.08795 15.3967 2 15.1667 2Z" fill="#3D76F7"/>
<path d="M1.24408 2.23013L7.3215 7.96019C7.97233 8.57391 9.02767 8.57391 9.6785 7.96019L15.7559 2.23013" fill="#3D76F7"/>
<path d="M1.24408 2.23013C1.39488 2.08795 1.60322 2 1.83333 2H15.1667C15.3967 2 15.6051 2.08795 15.7559 2.23013M1.24408 2.23013C1.09328 2.37232 1 2.56875 1 2.78571V12.2143C1 12.6482 1.3731 13 1.83333 13H15.1667C15.6269 13 16 12.6482 16 12.2143V2.78571C16 2.56875 15.9067 2.37232 15.7559 2.23013M1.24408 2.23013L7.3215 7.96019C7.97233 8.57391 9.02767 8.57391 9.6785 7.96019L15.7559 2.23013" stroke="black" stroke-width="1.5" stroke-linecap="round"/>
</svg>
