<svg width="17" height="17" viewBox="0 0 17 17" fill="none" xmlns="http://www.w3.org/2000/svg">
<path d="M15.9995 14.0894V11.9819C16.0087 11.6373 15.8816 11.3017 15.6424 11.0387C14.9679 10.2972 12.6545 9.82286 11.7375 10.005C11.0228 10.147 10.5226 10.8169 10.0337 11.2723C8.14553 10.2722 6.58215 8.81595 5.5085 7.05708C5.99741 6.60168 6.71656 6.13584 6.86903 5.47C7.06428 4.61716 6.55677 2.47183 5.76776 1.83976C5.49024 1.61744 5.13539 1.49671 4.76937 1.50007H2.50675C1.64465 1.50082 0.927396 2.22252 1.00589 3.03159C0.999996 10.005 6.83337 15.5 14.3554 15.4945C15.2269 15.5679 16.003 14.8951 15.9995 14.0894Z" fill="#FF603C" stroke="black" stroke-width="1.5" stroke-linecap="round"/>
</svg>
